<svg width="42" height="42" viewBox="0 0 42 42" fill="none" xmlns="http://www.w3.org/2000/svg">
<path d="M20.5867 0C9.21941 0 0 9.21941 0 20.5867C0 31.954 9.21941 41.1734 20.5867 41.1734C31.954 41.1734 41.1734 31.954 41.1734 20.5867C41.1734 9.21941 31.9591 0 20.5867 0ZM10.1561 21.2781L10.2436 21.1391L15.6013 12.7603C15.6192 12.7328 15.6442 12.7106 15.6737 12.696C15.7032 12.6814 15.736 12.675 15.7688 12.6775C15.8016 12.6799 15.8331 12.6911 15.8601 12.7099C15.887 12.7287 15.9085 12.7544 15.9221 12.7843C16.8142 14.7898 17.5896 17.2843 17.2259 18.8368C17.075 19.475 16.6512 20.3397 16.1726 21.1391C16.1112 21.2561 16.0442 21.37 15.9719 21.4805C15.9545 21.5052 15.9313 21.5251 15.9044 21.5386C15.8774 21.5521 15.8476 21.5586 15.8175 21.5577H10.3157C10.2828 21.5582 10.2505 21.5498 10.222 21.5334C10.1936 21.517 10.1701 21.4932 10.1541 21.4645C10.1381 21.4359 10.1301 21.4034 10.1311 21.3705C10.132 21.3377 10.1419 21.3058 10.1595 21.2781H10.1561ZM34.0264 24.1602C34.0268 24.1968 34.0165 24.2328 33.9967 24.2636C33.9768 24.2944 33.9484 24.3187 33.9149 24.3335C33.498 24.5102 32.0792 25.1655 31.4891 25.9839C29.9828 28.0803 28.8334 31.0791 26.2601 31.0791H15.531C14.6251 31.0777 13.7283 30.8979 12.892 30.5498C12.0557 30.2017 11.2961 29.6923 10.6568 29.0505C10.0174 28.4088 9.51078 27.6473 9.16583 26.8097C8.82089 25.9721 8.64439 25.0747 8.64642 24.1688V24.0453C8.64642 23.9458 8.72876 23.8634 8.8317 23.8634H14.8104C14.9305 23.8634 15.0163 23.9715 15.0077 24.0899C14.9631 24.4776 15.0369 24.8773 15.2222 25.2393C15.5756 25.9598 16.3132 26.4093 17.1076 26.4093H20.0686V24.0985H17.1384C17.1041 24.0981 17.0705 24.0884 17.0413 24.0703C17.0121 24.0523 16.9883 24.0266 16.9726 23.9961C16.9569 23.9656 16.9498 23.9313 16.9522 23.897C16.9545 23.8628 16.9661 23.8298 16.9857 23.8017L17.0938 23.6473C17.3683 23.251 17.7646 22.6419 18.1592 21.9454C18.4268 21.4754 18.6876 20.9744 18.8969 20.47C18.9381 20.3808 18.9707 20.2865 19.0084 20.1956C19.065 20.0343 19.1233 19.8833 19.1645 19.7341C19.2049 19.6075 19.2421 19.48 19.276 19.3515C19.3738 18.9226 19.415 18.4697 19.415 18.0014C19.415 17.8161 19.4081 17.6222 19.391 17.4404C19.3824 17.2397 19.3567 17.0372 19.3326 16.8365C19.3134 16.6569 19.286 16.4783 19.2503 16.3012C19.2041 16.0316 19.148 15.7638 19.0822 15.4984L19.0581 15.3954C19.0067 15.2101 18.9621 15.0352 18.9037 14.8516C18.7404 14.2879 18.5526 13.7315 18.341 13.1841C18.2673 12.9782 18.1861 12.775 18.0974 12.575C17.9739 12.2697 17.847 11.9935 17.732 11.7344C17.6748 11.6234 17.621 11.5107 17.5708 11.3965C17.515 11.2732 17.456 11.1513 17.3941 11.031C17.3529 10.9401 17.3031 10.8526 17.2705 10.7703L16.9085 10.1046C16.8588 10.0137 16.9411 9.90221 17.0406 9.93137L19.3052 10.5438H19.3223L19.6191 10.6296L19.9485 10.7222L20.0686 10.7548V9.41156C20.0686 8.76136 20.5867 8.23468 21.2335 8.23468C21.3862 8.23427 21.5374 8.26476 21.6781 8.32432C21.8187 8.38387 21.9458 8.47126 22.0518 8.58123C22.2708 8.80216 22.3941 9.10044 22.3949 9.41156V11.4085L22.6368 11.4754C22.654 11.484 22.6745 11.4925 22.69 11.5045C22.7483 11.5457 22.8341 11.6109 22.9422 11.6932C23.0279 11.7584 23.1189 11.8408 23.2252 11.9283C23.564 12.2043 23.8925 12.4927 24.21 12.7929C24.5771 13.1343 24.9888 13.534 25.3834 13.9784C25.4949 14.1053 25.6013 14.2288 25.7128 14.3661C25.8192 14.5016 25.9393 14.6337 26.0388 14.7641C26.1743 14.9425 26.3132 15.1278 26.4419 15.3199C26.4985 15.4109 26.5689 15.5052 26.622 15.5961C26.7867 15.8398 26.9274 16.0902 27.0629 16.3424C27.1213 16.4574 27.1779 16.5843 27.2276 16.7078C27.3803 17.0458 27.5004 17.3872 27.5742 17.7337C27.5986 17.8073 27.6153 17.8832 27.6239 17.9602V17.9773C27.6479 18.0751 27.6565 18.1832 27.6651 18.293C27.7134 18.8001 27.6514 19.3116 27.4833 19.7924C27.4301 19.9365 27.3803 20.084 27.3151 20.2282C27.1865 20.5198 27.0389 20.8166 26.8622 21.0894C26.8039 21.1923 26.7336 21.2987 26.6684 21.4016C26.5946 21.5097 26.5157 21.6126 26.4505 21.7104C26.3561 21.8403 26.2572 21.9668 26.1537 22.0895C26.0628 22.2131 25.9718 22.3366 25.8689 22.4481C25.73 22.6162 25.5944 22.774 25.4486 22.925C25.3663 23.0245 25.277 23.1274 25.181 23.2167C25.0918 23.3196 24.9957 23.4105 24.9133 23.4929C24.7692 23.637 24.656 23.7451 24.5565 23.8394L24.3215 24.0487C24.2887 24.0815 24.2443 24.1001 24.198 24.1002H22.3949V26.4093H24.6629C25.169 26.4093 25.651 26.2309 26.0422 25.8981C26.1743 25.7831 26.7541 25.2805 27.4421 24.5222C27.4645 24.4964 27.4945 24.4784 27.5279 24.4707L33.7896 22.6574C33.8171 22.6494 33.8461 22.648 33.8743 22.6531C33.9024 22.6582 33.929 22.6698 33.9519 22.6869C33.9749 22.704 33.9935 22.7262 34.0065 22.7517C34.0194 22.7773 34.0262 22.8055 34.0264 22.8341V24.1602Z" fill="white"/>
</svg>
