<svg width="41" height="42" viewBox="0 0 41 42" fill="none" xmlns="http://www.w3.org/2000/svg">
<path d="M20.3085 0C9.0935 0 0 9.21807 0 20.5867C0 31.9553 9.0935 41.1734 20.3085 41.1734C31.5235 41.1734 40.617 31.9553 40.617 20.5867C40.617 9.21807 31.5235 0 20.3085 0ZM30.0684 15.5181C30.082 15.7341 30.082 15.9593 30.082 16.1799C30.082 22.9257 25.0139 30.6962 15.7527 30.6962C12.8968 30.6962 10.2494 29.8553 8.01914 28.4078C8.42712 28.4538 8.81697 28.4721 9.23402 28.4721C11.5913 28.4721 13.7581 27.6634 15.4852 26.294C13.2731 26.2481 11.4145 24.7776 10.7798 22.7557C11.555 22.8705 12.2531 22.8705 13.0509 22.6638C11.9119 22.4292 10.8881 21.8021 10.1534 20.889C9.41878 19.9759 9.01864 18.8332 9.02097 17.6549V17.5906C9.68734 17.972 10.4716 18.2064 11.2921 18.2385C10.6023 17.7726 10.0367 17.1412 9.64523 16.4006C9.25381 15.6599 9.04872 14.8328 9.04816 13.9925C9.04816 13.0413 9.29296 12.1728 9.73267 11.4192C10.997 12.9969 12.5746 14.2873 14.3631 15.2064C16.1516 16.1256 18.1109 16.653 20.1136 16.7543C19.4019 13.2849 21.9586 10.4772 25.032 10.4772C26.4827 10.4772 27.7882 11.0929 28.7084 12.0855C29.8462 11.8695 30.9342 11.4376 31.9043 10.8586C31.528 12.0395 30.7393 13.0367 29.6921 13.6663C30.7075 13.556 31.6867 13.2711 32.5933 12.8713C31.9088 13.8914 31.0521 14.7967 30.0684 15.5181Z" fill="white"/>
</svg>
