<svg width="42" height="42" viewBox="0 0 42 42" fill="none" xmlns="http://www.w3.org/2000/svg">
<path fill-rule="evenodd" clip-rule="evenodd" d="M20.8426 41.314C32.0489 41.314 41.1334 32.2295 41.1334 21.0232C41.1334 9.81693 32.0489 0.732422 20.8426 0.732422C9.63626 0.732422 0.551758 9.81693 0.551758 21.0232C0.551758 32.2295 9.63626 41.314 20.8426 41.314ZM24.6223 11.1143C26.5111 11.4337 28.3172 11.9954 30.0021 12.7553C30.0169 12.7611 30.029 12.7721 30.0363 12.7861C33.0219 17.1054 34.4954 21.9797 33.9448 27.5896C33.9435 27.6015 33.9396 27.6129 33.9336 27.6232C33.9275 27.6334 33.9193 27.6423 33.9095 27.6491C31.9069 29.1081 29.6721 30.218 27.2996 30.932C27.2829 30.937 27.265 30.9368 27.2484 30.9312C27.2319 30.9257 27.2174 30.9152 27.2071 30.9012C26.7082 30.2173 26.2545 29.4971 25.858 28.7405C25.8526 28.73 25.8495 28.7186 25.8488 28.7068C25.8482 28.6951 25.8501 28.6834 25.8544 28.6724C25.8587 28.6615 25.8652 28.6516 25.8736 28.6434C25.882 28.6352 25.8921 28.6289 25.9031 28.6248C26.6223 28.3583 27.3073 28.0379 27.9659 27.659C27.9776 27.652 27.9874 27.6423 27.9945 27.6306C28.0015 27.6189 28.0055 27.6056 28.0062 27.592C28.0068 27.5783 28.0041 27.5647 27.9982 27.5524C27.9923 27.5401 27.9835 27.5294 27.9725 27.5213C27.8326 27.4189 27.6949 27.3121 27.5628 27.2042C27.5507 27.1945 27.5361 27.1885 27.5207 27.1867C27.5053 27.185 27.4898 27.1876 27.4758 27.1943C23.2017 29.1369 18.5179 29.1369 14.1931 27.1943C14.1792 27.188 14.1638 27.1857 14.1486 27.1876C14.1335 27.1896 14.1191 27.1957 14.1072 27.2053C13.9751 27.3121 13.8363 27.4189 13.6975 27.5213C13.6866 27.5296 13.6779 27.5404 13.6722 27.5528C13.6665 27.5653 13.664 27.5789 13.6649 27.5926C13.6658 27.6062 13.67 27.6194 13.6772 27.631C13.6845 27.6426 13.6945 27.6522 13.7064 27.659C14.3672 28.0347 15.0565 28.358 15.768 28.6259C15.779 28.6298 15.789 28.636 15.7974 28.6441C15.8058 28.6522 15.8124 28.662 15.8167 28.6729C15.821 28.6838 15.8229 28.6954 15.8222 28.7071C15.8216 28.7187 15.8185 28.7301 15.8131 28.7405C15.4243 29.4975 14.9726 30.2207 14.4629 30.9023C14.4522 30.9158 14.4376 30.9258 14.4211 30.9309C14.4046 30.936 14.3869 30.936 14.3704 30.9309C12.0019 30.2149 9.77078 29.1055 7.77041 27.6491C7.76091 27.6418 7.75298 27.6327 7.74711 27.6223C7.74124 27.6119 7.73755 27.6004 7.73627 27.5885C7.27483 22.7362 8.21423 17.8223 11.6414 12.7839C11.6499 12.7706 11.6622 12.7602 11.6767 12.7542C13.3628 11.9932 15.1689 11.4315 17.0565 11.1121C17.0735 11.1094 17.091 11.112 17.1065 11.1195C17.1221 11.1269 17.135 11.139 17.1435 11.154C17.395 11.5925 17.6218 12.0448 17.823 12.5086C19.8261 12.2093 21.8626 12.2093 23.8658 12.5086C24.0464 12.0901 24.3041 11.5604 24.5353 11.154C24.5439 11.1392 24.5569 11.1274 24.5725 11.1203C24.5881 11.1132 24.6055 11.1111 24.6223 11.1143ZM14.0841 22.0127C14.0841 23.4565 15.1579 24.6338 16.4596 24.6338C17.7822 24.6338 18.8351 23.4576 18.8351 22.0127C18.856 20.5777 17.7921 19.3916 16.4596 19.3916C15.1369 19.3916 14.0841 20.5678 14.0841 22.0127ZM22.8669 22.0127C22.8669 23.4565 23.9395 24.6338 25.2424 24.6338C26.576 24.6338 27.6179 23.4576 27.6179 22.0127C27.6388 20.5777 26.5749 19.3916 25.2424 19.3916C23.9186 19.3916 22.8669 20.5678 22.8669 22.0127Z" fill="white"/>
</svg>
