<svg width="43" height="43" viewBox="0 0 43 43" fill="none" xmlns="http://www.w3.org/2000/svg">
<path fill-rule="evenodd" clip-rule="evenodd" d="M18.5738 17.7001C19.4011 17.147 20.3737 16.8515 21.3689 16.8512C22.7034 16.8517 23.9832 17.3819 24.9271 18.3254C25.8709 19.2689 26.4016 20.5485 26.4026 21.883C26.4026 22.8782 26.1076 23.851 25.5547 24.6784C25.0019 25.5059 24.2161 26.1508 23.2968 26.5317C22.3775 26.9126 21.3658 27.0124 20.3898 26.8184C19.4137 26.6244 18.5171 26.1453 17.8133 25.4418C17.1095 24.7383 16.6302 23.8418 16.4358 22.8659C16.2414 21.8899 16.3408 20.8782 16.7214 19.9587C17.1019 19.0392 17.7466 18.2532 18.5738 17.7001ZM31.997 11.2511C32.4905 11.7446 32.8773 12.3342 33.1335 12.9834L33.1373 12.9843C33.8131 14.6898 33.7758 18.4031 33.7515 20.8104C33.7475 21.2087 33.7439 21.5712 33.7439 21.883C33.7439 22.1948 33.7475 22.5574 33.7515 22.9558C33.7757 25.3644 33.8132 29.0819 33.1373 30.7818C32.8811 31.4309 32.4943 32.0206 32.0008 32.514C31.5073 33.0075 30.9177 33.3943 30.2685 33.6505C28.5647 34.3269 24.8579 34.2893 22.4497 34.2648C22.0498 34.2608 21.6858 34.2571 21.3726 34.2571C21.0654 34.2571 20.7089 34.2605 20.3176 34.2643C17.9089 34.2874 14.18 34.3233 12.4758 33.6505C11.8266 33.3943 11.237 33.0075 10.7435 32.514C10.25 32.0206 9.86322 31.4309 9.60706 30.7818C8.93118 29.0701 8.96673 25.3354 8.98964 22.9288C8.99334 22.5407 8.9967 22.1871 8.9967 21.8821C8.9967 21.5762 8.99332 21.2213 8.9896 20.8316C8.96662 18.4238 8.93099 14.6885 9.60328 12.9834C9.85945 12.3342 10.2463 11.7446 10.7398 11.2511C11.2332 10.7576 11.8229 10.3708 12.472 10.1146C14.1759 9.43827 17.8842 9.47589 20.2922 9.50031C20.692 9.50436 21.0559 9.50805 21.3689 9.50805C21.676 9.50805 22.0323 9.50463 22.4234 9.50087C24.8316 9.47771 28.5605 9.44186 30.2647 10.1146C30.9139 10.3708 31.5035 10.7576 31.997 11.2511ZM17.0712 28.3149C18.3433 29.1649 19.8389 29.6186 21.3689 29.6186C22.3851 29.6198 23.3915 29.4206 24.3306 29.0323C25.2697 28.644 26.1229 28.0742 26.8415 27.3557C27.56 26.6371 28.1298 25.7839 28.5181 24.8448C28.9064 23.9057 29.1056 22.8992 29.1044 21.883C29.1044 20.3531 28.6507 18.8575 27.8007 17.5854C26.9507 16.3133 25.7426 15.3218 24.3291 14.7363C22.9156 14.1508 21.3603 13.9977 19.8597 14.2961C18.3592 14.5946 16.9808 15.3313 15.899 16.4132C14.8172 17.495 14.0804 18.8734 13.782 20.3739C13.4835 21.8745 13.6367 23.4298 14.2221 24.8433C14.8076 26.2568 15.7991 27.4649 17.0712 28.3149ZM28.4199 15.3247C28.7169 15.523 29.0661 15.6288 29.4233 15.6286L29.427 15.6323C29.6642 15.6322 29.899 15.5853 30.118 15.4942C30.337 15.4031 30.5359 15.2697 30.7032 15.1016C30.8705 14.9335 31.003 14.734 31.093 14.5146C31.1831 14.2952 31.2289 14.0602 31.2279 13.823C31.2279 13.4658 31.122 13.1167 30.9235 12.8197C30.7251 12.5228 30.4431 12.2914 30.1131 12.1547C29.7831 12.0181 29.42 11.9824 29.0697 12.0522C28.7194 12.1219 28.3977 12.294 28.1452 12.5466C27.8928 12.7992 27.7209 13.121 27.6513 13.4713C27.5817 13.8216 27.6176 14.1847 27.7544 14.5146C27.8912 14.8445 28.1228 15.1264 28.4199 15.3247ZM33.9184 34.4297C35.6834 32.6694 36.2353 30.527 36.357 28.1092C36.4975 25.615 36.4975 18.1511 36.357 15.6682C36.2419 13.2504 35.6796 11.107 33.9184 9.34297C32.1571 7.57888 30.0157 7.02607 27.5979 6.90438C25.1065 6.76382 17.6369 6.76382 15.1455 6.90438C12.7371 7.01947 10.5966 7.57605 8.82501 9.33636C7.05338 11.0967 6.50812 13.239 6.38643 15.6569C6.24587 18.1464 6.24587 25.6169 6.38643 28.1092C6.50152 30.5223 7.05716 32.6656 8.82501 34.4297C10.5929 36.1938 12.7277 36.7466 15.1455 36.8683C17.6369 37.0089 25.1065 37.0089 27.5979 36.8683C30.0129 36.7532 32.1533 36.19 33.9184 34.4297ZM21.5 42.8828C33.098 42.8828 42.5 33.4808 42.5 21.8828C42.5 10.2848 33.098 0.882812 21.5 0.882812C9.90202 0.882812 0.5 10.2848 0.5 21.8828C0.5 33.4808 9.90202 42.8828 21.5 42.8828Z" fill="white"/>
</svg>
